{
	"asset":{
		"generator":"Khronos glTF Blender I/O v5.2.39",
		"version":"2.0"
	},
	"extensionsUsed":[
		"KHR_lights_punctual"
	],
	"extensionsRequired":[
		"KHR_lights_punctual"
	],
	"extensions":{
		"KHR_lights_punctual":{
			"lights":[
				{
					"color":[
						1,
						1,
						1
					],
					"intensity":543.5141306588226,
					"type":"point",
					"name":"Point"
				}
			]
		}
	},
	"scene":0,
	"scenes":[
		{
			"name":"Scene",
			"nodes":[
				0,
				2,
				4,
				5
			]
		}
	],
	"nodes":[
		{
			"camera":0,
			"name":"Camera",
			"rotation":[
				-0.27781587839126587,
				0.3649716377258301,
				0.11507511138916016,
				0.8811196088790894
			],
			"translation":[
				4,
				4,
				4
			]
		},
		{
			"mesh":0,
			"name":"LOD3spShape",
			"translation":[
				0,
				-75.81573486328125,
				0
			]
		},
		{
			"children":[
				1
			],
			"name":"Node_0",
			"scale":[
				0.009999999776482582,
				0.009999999776482582,
				0.009999999776482582
			]
		},
		{
			"mesh":1,
			"name":"Mesh",
			"scale":[
				2,
				2,
				2
			]
		},
		{
			"children":[
				3
			],
			"name":"Node_0.001",
			"rotation":[
				-0.70710688829422,
				0,
				0,
				0.7071066498756409
			],
			"scale":[
				4,
				4.000000476837158,
				4.000000476837158
			]
		},
		{
			"extensions":{
				"KHR_lights_punctual":{
					"light":0
				}
			},
			"name":"Point",
			"rotation":[
				-0.7071068286895752,
				0,
				0,
				0.7071068286895752
			],
			"translation":[
				0,
				3,
				0
			]
		}
	],
	"cameras":[
		{
			"name":"Camera.002",
			"perspective":{
				"aspectRatio":1.7777777777777777,
				"yfov":0.39959652046304894,
				"zfar":1000,
				"znear":0.10000000149011612
			},
			"type":"perspective"
		}
	],
	"materials":[
		{
			"name":"blinn3-fx",
			"pbrMetallicRoughness":{
				"baseColorTexture":{
					"index":0
				},
				"metallicFactor":0
			}
		},
		{
			"name":"Red",
			"pbrMetallicRoughness":{
				"baseColorFactor":[
					0.800000011920929,
					0,
					0,
					1
				],
				"metallicFactor":0
			}
		}
	],
	"meshes":[
		{
			"name":"LOD3spShape",
			"primitives":[
				{
					"attributes":{
						"POSITION":0,
						"NORMAL":1,
						"TEXCOORD_0":2
					},
					"indices":3,
					"material":0
				}
			]
		},
		{
			"name":"Mesh",
			"primitives":[
				{
					"attributes":{
						"POSITION":4,
						"NORMAL":5
					},
					"indices":6,
					"material":1
				}
			]
		}
	],
	"textures":[
		{
			"sampler":0,
			"source":0
		}
	],
	"images":[
		{
			"mimeType":"image/png",
			"name":"DuckCM",
			"uri":"DuckCM.png"
		}
	],
	"accessors":[
		{
			"bufferView":0,
			"componentType":5126,
			"count":2399,
			"max":[
				96.17990112304688,
				163.97000122070312,
				53.92519760131836
			],
			"min":[
				-69.29850006103516,
				9.929369926452637,
				-61.32819747924805
			],
			"type":"VEC3"
		},
		{
			"bufferView":1,
			"componentType":5126,
			"count":2399,
			"type":"VEC3"
		},
		{
			"bufferView":2,
			"componentType":5126,
			"count":2399,
			"type":"VEC2"
		},
		{
			"bufferView":3,
			"componentType":5123,
			"count":12636,
			"type":"SCALAR"
		},
		{
			"bufferView":4,
			"componentType":5126,
			"count":24,
			"max":[
				0.5,
				0.5,
				0.5
			],
			"min":[
				-0.5,
				-0.5,
				-0.5
			],
			"type":"VEC3"
		},
		{
			"bufferView":5,
			"componentType":5126,
			"count":24,
			"type":"VEC3"
		},
		{
			"bufferView":6,
			"componentType":5123,
			"count":36,
			"type":"SCALAR"
		}
	],
	"bufferViews":[
		{
			"buffer":0,
			"byteLength":28788,
			"byteOffset":0,
			"target":34962
		},
		{
			"buffer":0,
			"byteLength":28788,
			"byteOffset":28788,
			"target":34962
		},
		{
			"buffer":0,
			"byteLength":19192,
			"byteOffset":57576,
			"target":34962
		},
		{
			"buffer":0,
			"byteLength":25272,
			"byteOffset":76768,
			"target":34963
		},
		{
			"buffer":0,
			"byteLength":288,
			"byteOffset":102040,
			"target":34962
		},
		{
			"buffer":0,
			"byteLength":288,
			"byteOffset":102328,
			"target":34962
		},
		{
			"buffer":0,
			"byteLength":72,
			"byteOffset":102616,
			"target":34963
		}
	],
	"samplers":[
		{
			"magFilter":9729,
			"minFilter":9987
		}
	],
	"buffers":[
		{
			"byteLength":102688,
			"uri":"DuckInBox.bin"
		}
	]
}
